<svg width="24" height="24" fill="none" xmlns="http://www.w3.org/2000/svg"><path fill-rule="evenodd" clip-rule="evenodd" d="M.586.586a2 2 0 012.828 0L12 9.172 20.586.586l.707.707-.707-.707a2 2 0 012.828 0l-.707.707.707-.707a2 2 0 010 2.828L14.828 12l8.586 8.586a2 2 0 010 2.828l-.707-.707.707.707a2 2 0 01-2.828 0L12 14.828l-8.586 8.586a2 2 0 01-2.828 0l.707-.707-.707.707a2 2 0 010-2.828l.707.707-.707-.707L9.172 12 .586 3.414a2 2 0 010-2.828zM12.414 12a1 1 0 01.293-.707 1 1 0 01-1.414 0 1 1 0 010 1.414 1 1 0 011.414 0 1 1 0 01-.293-.707z" fill="#000"/></svg>