<svg width="19" height="19" fill="none" xmlns="http://www.w3.org/2000/svg"><path fill-rule="evenodd" clip-rule="evenodd" d="M.5 8.111a7.611 7.611 0 1113.949 4.216l3.612 3.612a1.5 1.5 0 01-2.122 2.122l-3.612-3.612A7.611 7.611 0 01.5 8.112zM8.111 1.5a6.611 6.611 0 103.972 11.896.5.5 0 01.697.09l3.866 3.868a.5.5 0 00.708-.708l-3.867-3.866a.5.5 0 01-.09-.696A6.611 6.611 0 008.111 1.5zM2.5 8.111a5.611 5.611 0 1111.222 0 5.611 5.611 0 01-11.222 0zM8.111 3.5a4.611 4.611 0 100 9.222 4.611 4.611 0 000-9.222z" fill="#000"/></svg>