<svg width="27" height="20" viewBox="0 0 27 20" fill="none" xmlns="http://www.w3.org/2000/svg">
<path fill-rule="evenodd" clip-rule="evenodd" d="M0 2.61539C0 1.51082 0.89543 0.615387 2 0.615387H25C26.1046 0.615387 27 1.51082 27 2.61539C27 3.71996 26.1046 4.61539 25 4.61539H2C0.895431 4.61539 0 3.71996 0 2.61539ZM0 10C0 8.89543 0.89543 8 2 8H25C26.1046 8 27 8.89543 27 10C27 11.1046 26.1046 12 25 12H2C0.895431 12 0 11.1046 0 10ZM0 17.3846C0 16.28 0.895431 15.3846 2 15.3846H25C26.1046 15.3846 27 16.28 27 17.3846C27 18.4892 26.1046 19.3846 25 19.3846H2C0.895431 19.3846 0 18.4892 0 17.3846Z" fill="black"/>
</svg>
