<svg width="24" height="24" viewBox="0 0 24 24" fill="none" xmlns="http://www.w3.org/2000/svg">
<path fill-rule="evenodd" clip-rule="evenodd" d="M0.585786 0.585786C1.36683 -0.195262 2.63317 -0.195262 3.41421 0.585786L12 9.17157L20.5858 0.585786L21.2929 1.29289L20.5858 0.585785C21.3668 -0.195262 22.6332 -0.195262 23.4142 0.585785L22.7071 1.29289L23.4142 0.585787C24.1953 1.36684 24.1953 2.63316 23.4142 3.41421L14.8284 12L23.4142 20.5858C24.1953 21.3668 24.1953 22.6332 23.4142 23.4142L22.7071 22.7071L23.4142 23.4142C22.6332 24.1953 21.3668 24.1953 20.5858 23.4142L12 14.8284L3.41421 23.4142C2.63316 24.1953 1.36684 24.1953 0.585787 23.4142L1.29289 22.7071L0.585785 23.4142C-0.195262 22.6332 -0.195262 21.3668 0.585785 20.5858L1.29289 21.2929L0.585787 20.5858L9.17157 12L0.585787 3.41421C-0.195262 2.63317 -0.195262 1.36683 0.585786 0.585786ZM12.4142 12C12.4142 11.7348 12.5196 11.4804 12.7071 11.2929C12.3166 11.6834 11.6834 11.6834 11.2929 11.2929C11.6834 11.6834 11.6834 12.3166 11.2929 12.7071C11.4804 12.5196 11.7348 12.4142 12 12.4142C12.2652 12.4142 12.5196 12.5196 12.7071 12.7071C12.5196 12.5196 12.4142 12.2652 12.4142 12Z" fill="black"/>
</svg>
