<svg width="19" height="19" viewBox="0 0 19 19" fill="none" xmlns="http://www.w3.org/2000/svg">
<path fill-rule="evenodd" clip-rule="evenodd" d="M0.5 8.11111C0.5 3.90761 3.90761 0.5 8.11111 0.5C12.3146 0.5 15.7222 3.90761 15.7222 8.11111C15.7222 9.66986 15.2532 11.1202 14.4486 12.3273L18.0607 15.9393C18.6464 16.5251 18.6464 17.4749 18.0607 18.0607C17.4749 18.6464 16.5251 18.6464 15.9393 18.0607L12.3273 14.4486C11.1202 15.2532 9.66986 15.7222 8.11111 15.7222C3.90761 15.7222 0.5 12.3146 0.5 8.11111ZM8.11111 1.5C4.4599 1.5 1.5 4.4599 1.5 8.11111C1.5 11.7623 4.4599 14.7222 8.11111 14.7222C9.60264 14.7222 10.9775 14.2289 12.0834 13.3963C12.2917 13.2395 12.5855 13.269 12.7584 13.4642C12.7653 13.4719 12.7724 13.4795 12.7798 13.4869L16.6464 17.3536C16.8417 17.5488 17.1583 17.5488 17.3536 17.3536C17.5488 17.1583 17.5488 16.8417 17.3536 16.6464L13.4869 12.7798C13.4795 12.7724 13.4719 12.7653 13.4642 12.7584C13.269 12.5855 13.2395 12.2917 13.3963 12.0834C14.2289 10.9775 14.7222 9.60264 14.7222 8.11111C14.7222 4.4599 11.7623 1.5 8.11111 1.5ZM2.5 8.11111C2.5 5.01218 5.01218 2.5 8.11111 2.5C11.21 2.5 13.7222 5.01218 13.7222 8.11111C13.7222 11.21 11.21 13.7222 8.11111 13.7222C5.01218 13.7222 2.5 11.21 2.5 8.11111ZM8.11111 3.5C5.56447 3.5 3.5 5.56447 3.5 8.11111C3.5 10.6578 5.56447 12.7222 8.11111 12.7222C10.6578 12.7222 12.7222 10.6578 12.7222 8.11111C12.7222 5.56447 10.6578 3.5 8.11111 3.5Z" fill="black"/>
</svg>
